<mxfile host="app.diagrams.net" agent="Mozilla/5.0 (Windows NT 10.0; Win64; x64) AppleWebKit/537.36 (KHTML, like Gecko) Chrome/139.0.0.0 Safari/537.36 Edg/139.0.0.0" version="28.1.0">
  <diagram name="Page-1" id="Eyr6RxYLFg0FWXY8so7s">
    <mxGraphModel dx="793" dy="955" grid="1" gridSize="10" guides="1" tooltips="1" connect="1" arrows="1" fold="1" page="1" pageScale="1" pageWidth="850" pageHeight="1100" math="0" shadow="0">
      <root>
        <mxCell id="0" />
        <mxCell id="1" parent="0" />
        <mxCell id="hP72EC4CjcAznyABsPa--8" value="" style="edgeStyle=orthogonalEdgeStyle;rounded=0;orthogonalLoop=1;jettySize=auto;html=1;" parent="1" edge="1">
          <mxGeometry relative="1" as="geometry">
            <mxPoint x="160" y="290" as="sourcePoint" />
            <mxPoint x="160" y="340" as="targetPoint" />
          </mxGeometry>
        </mxCell>
        <mxCell id="hP72EC4CjcAznyABsPa--39" value="NO" style="edgeLabel;html=1;align=center;verticalAlign=middle;resizable=0;points=[];" parent="hP72EC4CjcAznyABsPa--8" vertex="1" connectable="0">
          <mxGeometry x="0.28" y="-2" relative="1" as="geometry">
            <mxPoint x="2" y="-12" as="offset" />
          </mxGeometry>
        </mxCell>
        <mxCell id="hP72EC4CjcAznyABsPa--1" value="System ON" style="ellipse;whiteSpace=wrap;html=1;fillColor=#f5f5f5;strokeColor=#666666;fontColor=#333333;" parent="1" vertex="1">
          <mxGeometry x="100" y="40" width="120" height="80" as="geometry" />
        </mxCell>
        <mxCell id="hP72EC4CjcAznyABsPa--5" style="edgeStyle=orthogonalEdgeStyle;rounded=0;orthogonalLoop=1;jettySize=auto;html=1;entryX=0.5;entryY=0;entryDx=0;entryDy=0;" parent="1" source="hP72EC4CjcAznyABsPa--2" target="hP72EC4CjcAznyABsPa--4" edge="1">
          <mxGeometry relative="1" as="geometry" />
        </mxCell>
        <mxCell id="hP72EC4CjcAznyABsPa--11" value="NO" style="edgeLabel;html=1;align=center;verticalAlign=middle;resizable=0;points=[];" parent="hP72EC4CjcAznyABsPa--5" vertex="1" connectable="0">
          <mxGeometry x="-0.0833" y="-1" relative="1" as="geometry">
            <mxPoint x="1" y="-15" as="offset" />
          </mxGeometry>
        </mxCell>
        <mxCell id="hP72EC4CjcAznyABsPa--10" value="" style="edgeStyle=orthogonalEdgeStyle;rounded=0;orthogonalLoop=1;jettySize=auto;html=1;" parent="1" source="hP72EC4CjcAznyABsPa--2" target="hP72EC4CjcAznyABsPa--6" edge="1">
          <mxGeometry relative="1" as="geometry" />
        </mxCell>
        <mxCell id="hP72EC4CjcAznyABsPa--12" value="YES" style="edgeLabel;html=1;align=center;verticalAlign=middle;resizable=0;points=[];" parent="hP72EC4CjcAznyABsPa--10" vertex="1" connectable="0">
          <mxGeometry x="-0.2" relative="1" as="geometry">
            <mxPoint as="offset" />
          </mxGeometry>
        </mxCell>
        <mxCell id="hP72EC4CjcAznyABsPa--2" value="&amp;nbsp;Is the food level high enough?" style="rhombus;whiteSpace=wrap;html=1;fillColor=#ffe6cc;strokeColor=#d79b00;" parent="1" vertex="1">
          <mxGeometry x="290" y="340" width="140" height="140" as="geometry" />
        </mxCell>
        <mxCell id="hP72EC4CjcAznyABsPa--41" value="" style="edgeStyle=orthogonalEdgeStyle;rounded=0;orthogonalLoop=1;jettySize=auto;html=1;" parent="1" source="hP72EC4CjcAznyABsPa--4" target="hP72EC4CjcAznyABsPa--40" edge="1">
          <mxGeometry relative="1" as="geometry" />
        </mxCell>
        <mxCell id="hP72EC4CjcAznyABsPa--4" value="Alert staff with notification" style="rounded=0;whiteSpace=wrap;html=1;fillColor=#dae8fc;strokeColor=#6c8ebf;" parent="1" vertex="1">
          <mxGeometry x="300" y="600" width="120" height="60" as="geometry" />
        </mxCell>
        <mxCell id="hP72EC4CjcAznyABsPa--18" style="edgeStyle=orthogonalEdgeStyle;rounded=0;orthogonalLoop=1;jettySize=auto;html=1;entryX=0.5;entryY=0;entryDx=0;entryDy=0;" parent="1" source="hP72EC4CjcAznyABsPa--6" target="hP72EC4CjcAznyABsPa--17" edge="1">
          <mxGeometry relative="1" as="geometry" />
        </mxCell>
        <mxCell id="hP72EC4CjcAznyABsPa--25" value="YES" style="edgeLabel;html=1;align=center;verticalAlign=middle;resizable=0;points=[];" parent="hP72EC4CjcAznyABsPa--18" vertex="1" connectable="0">
          <mxGeometry x="-0.25" y="1" relative="1" as="geometry">
            <mxPoint x="-1" y="-5" as="offset" />
          </mxGeometry>
        </mxCell>
        <mxCell id="hP72EC4CjcAznyABsPa--27" value="" style="edgeStyle=orthogonalEdgeStyle;rounded=0;orthogonalLoop=1;jettySize=auto;html=1;entryX=0.5;entryY=0;entryDx=0;entryDy=0;" parent="1" target="hP72EC4CjcAznyABsPa--26" edge="1">
          <mxGeometry relative="1" as="geometry">
            <mxPoint x="620" y="410" as="sourcePoint" />
            <mxPoint x="745" y="460" as="targetPoint" />
            <Array as="points">
              <mxPoint x="715" y="410" />
            </Array>
          </mxGeometry>
        </mxCell>
        <mxCell id="hP72EC4CjcAznyABsPa--28" value="NO" style="edgeLabel;html=1;align=center;verticalAlign=middle;resizable=0;points=[];" parent="hP72EC4CjcAznyABsPa--27" vertex="1" connectable="0">
          <mxGeometry x="-0.4222" y="-1" relative="1" as="geometry">
            <mxPoint x="-37" y="-1" as="offset" />
          </mxGeometry>
        </mxCell>
        <mxCell id="hP72EC4CjcAznyABsPa--6" value="Is it set feeding time?" style="rhombus;whiteSpace=wrap;html=1;fillColor=#ffe6cc;strokeColor=#d79b00;" parent="1" vertex="1">
          <mxGeometry x="480" y="340" width="140" height="140" as="geometry" />
        </mxCell>
        <mxCell id="hP72EC4CjcAznyABsPa--9" value="" style="edgeStyle=orthogonalEdgeStyle;rounded=0;orthogonalLoop=1;jettySize=auto;html=1;" parent="1" target="hP72EC4CjcAznyABsPa--2" edge="1">
          <mxGeometry relative="1" as="geometry">
            <mxPoint x="230" y="410" as="sourcePoint" />
          </mxGeometry>
        </mxCell>
        <mxCell id="hP72EC4CjcAznyABsPa--13" value="YES" style="edgeLabel;html=1;align=center;verticalAlign=middle;resizable=0;points=[];" parent="hP72EC4CjcAznyABsPa--9" vertex="1" connectable="0">
          <mxGeometry x="-0.4" relative="1" as="geometry">
            <mxPoint as="offset" />
          </mxGeometry>
        </mxCell>
        <mxCell id="hP72EC4CjcAznyABsPa--14" style="edgeStyle=orthogonalEdgeStyle;rounded=0;orthogonalLoop=1;jettySize=auto;html=1;entryX=0.5;entryY=0;entryDx=0;entryDy=0;" parent="1" target="hP72EC4CjcAznyABsPa--4" edge="1">
          <mxGeometry relative="1" as="geometry">
            <mxPoint x="160" y="480" as="sourcePoint" />
            <Array as="points">
              <mxPoint x="160" y="570" />
              <mxPoint x="360" y="570" />
            </Array>
          </mxGeometry>
        </mxCell>
        <mxCell id="hP72EC4CjcAznyABsPa--15" value="NO" style="edgeLabel;html=1;align=center;verticalAlign=middle;resizable=0;points=[];" parent="hP72EC4CjcAznyABsPa--14" vertex="1" connectable="0">
          <mxGeometry x="-0.2759" y="5" relative="1" as="geometry">
            <mxPoint x="-5" y="-75" as="offset" />
          </mxGeometry>
        </mxCell>
        <mxCell id="hP72EC4CjcAznyABsPa--7" value="Is device configured?" style="rhombus;whiteSpace=wrap;html=1;fillColor=#ffe6cc;strokeColor=#d79b00;" parent="1" vertex="1">
          <mxGeometry x="90" y="340" width="140" height="140" as="geometry" />
        </mxCell>
        <mxCell id="hP72EC4CjcAznyABsPa--20" value="" style="edgeStyle=orthogonalEdgeStyle;rounded=0;orthogonalLoop=1;jettySize=auto;html=1;entryX=0.5;entryY=0;entryDx=0;entryDy=0;" parent="1" source="hP72EC4CjcAznyABsPa--17" target="hP72EC4CjcAznyABsPa--21" edge="1">
          <mxGeometry relative="1" as="geometry" />
        </mxCell>
        <mxCell id="hP72EC4CjcAznyABsPa--17" value="Dispense food for pet" style="rounded=0;whiteSpace=wrap;html=1;fillColor=#dae8fc;strokeColor=#6c8ebf;" parent="1" vertex="1">
          <mxGeometry x="490" y="600" width="120" height="60" as="geometry" />
        </mxCell>
        <mxCell id="hP72EC4CjcAznyABsPa--23" style="edgeStyle=orthogonalEdgeStyle;rounded=0;orthogonalLoop=1;jettySize=auto;html=1;entryX=0.5;entryY=1;entryDx=0;entryDy=0;" parent="1" source="hP72EC4CjcAznyABsPa--19" target="hP72EC4CjcAznyABsPa--4" edge="1">
          <mxGeometry relative="1" as="geometry">
            <Array as="points">
              <mxPoint x="360" y="925" />
            </Array>
          </mxGeometry>
        </mxCell>
        <mxCell id="hP72EC4CjcAznyABsPa--24" value="NO" style="edgeLabel;html=1;align=center;verticalAlign=middle;resizable=0;points=[];" parent="hP72EC4CjcAznyABsPa--23" vertex="1" connectable="0">
          <mxGeometry x="-0.0212" y="5" relative="1" as="geometry">
            <mxPoint x="65" y="68" as="offset" />
          </mxGeometry>
        </mxCell>
        <mxCell id="hP72EC4CjcAznyABsPa--31" style="edgeStyle=orthogonalEdgeStyle;rounded=0;orthogonalLoop=1;jettySize=auto;html=1;entryX=0.5;entryY=1;entryDx=0;entryDy=0;" parent="1" source="hP72EC4CjcAznyABsPa--19" target="hP72EC4CjcAznyABsPa--26" edge="1">
          <mxGeometry relative="1" as="geometry" />
        </mxCell>
        <mxCell id="hP72EC4CjcAznyABsPa--32" value="YES" style="edgeLabel;html=1;align=center;verticalAlign=middle;resizable=0;points=[];" parent="hP72EC4CjcAznyABsPa--31" vertex="1" connectable="0">
          <mxGeometry x="0.3489" y="-2" relative="1" as="geometry">
            <mxPoint x="-42" y="148" as="offset" />
          </mxGeometry>
        </mxCell>
        <mxCell id="hP72EC4CjcAznyABsPa--19" value="Has bowl weirght changed?" style="rhombus;whiteSpace=wrap;html=1;rounded=0;fillColor=#ffe6cc;strokeColor=#d79b00;" parent="1" vertex="1">
          <mxGeometry x="480" y="850" width="140" height="150" as="geometry" />
        </mxCell>
        <mxCell id="hP72EC4CjcAznyABsPa--22" value="" style="edgeStyle=orthogonalEdgeStyle;rounded=0;orthogonalLoop=1;jettySize=auto;html=1;" parent="1" source="hP72EC4CjcAznyABsPa--21" target="hP72EC4CjcAznyABsPa--19" edge="1">
          <mxGeometry relative="1" as="geometry" />
        </mxCell>
        <mxCell id="hP72EC4CjcAznyABsPa--21" value="Wait 15 minutes" style="rounded=0;whiteSpace=wrap;html=1;fillColor=#dae8fc;strokeColor=#6c8ebf;" parent="1" vertex="1">
          <mxGeometry x="490" y="730" width="120" height="60" as="geometry" />
        </mxCell>
        <mxCell id="hP72EC4CjcAznyABsPa--33" style="edgeStyle=orthogonalEdgeStyle;rounded=0;orthogonalLoop=1;jettySize=auto;html=1;entryX=1;entryY=0.5;entryDx=0;entryDy=0;" parent="1" source="hP72EC4CjcAznyABsPa--26" target="hP72EC4CjcAznyABsPa--35" edge="1">
          <mxGeometry relative="1" as="geometry">
            <Array as="points">
              <mxPoint x="805" y="630" />
              <mxPoint x="805" y="220" />
            </Array>
          </mxGeometry>
        </mxCell>
        <mxCell id="hP72EC4CjcAznyABsPa--26" value="Do nothing" style="whiteSpace=wrap;html=1;fillColor=#dae8fc;strokeColor=#6c8ebf;" parent="1" vertex="1">
          <mxGeometry x="655" y="600" width="120" height="60" as="geometry" />
        </mxCell>
        <mxCell id="hP72EC4CjcAznyABsPa--36" value="" style="edgeStyle=orthogonalEdgeStyle;rounded=0;orthogonalLoop=1;jettySize=auto;html=1;" parent="1" source="hP72EC4CjcAznyABsPa--1" target="hP72EC4CjcAznyABsPa--35" edge="1">
          <mxGeometry relative="1" as="geometry">
            <mxPoint x="130" y="120" as="sourcePoint" />
            <mxPoint x="130" y="320" as="targetPoint" />
          </mxGeometry>
        </mxCell>
        <mxCell id="hP72EC4CjcAznyABsPa--37" style="edgeStyle=orthogonalEdgeStyle;rounded=0;orthogonalLoop=1;jettySize=auto;html=1;exitX=0.5;exitY=1;exitDx=0;exitDy=0;" parent="1" source="hP72EC4CjcAznyABsPa--35" edge="1">
          <mxGeometry relative="1" as="geometry">
            <mxPoint x="110" y="220" as="sourcePoint" />
            <mxPoint x="360" y="600" as="targetPoint" />
            <Array as="points">
              <mxPoint x="70" y="290" />
              <mxPoint x="70" y="570" />
              <mxPoint x="360" y="570" />
            </Array>
          </mxGeometry>
        </mxCell>
        <mxCell id="hP72EC4CjcAznyABsPa--38" value="YES" style="edgeLabel;html=1;align=center;verticalAlign=middle;resizable=0;points=[];" parent="hP72EC4CjcAznyABsPa--37" vertex="1" connectable="0">
          <mxGeometry x="-0.4364" relative="1" as="geometry">
            <mxPoint x="40" y="-104" as="offset" />
          </mxGeometry>
        </mxCell>
        <mxCell id="hP72EC4CjcAznyABsPa--35" value="Is Battery Level lower than 10%?" style="rhombus;whiteSpace=wrap;html=1;fillColor=#ffe6cc;strokeColor=#d79b00;" parent="1" vertex="1">
          <mxGeometry x="90" y="150" width="140" height="140" as="geometry" />
        </mxCell>
        <mxCell id="hP72EC4CjcAznyABsPa--42" style="edgeStyle=orthogonalEdgeStyle;rounded=0;orthogonalLoop=1;jettySize=auto;html=1;entryX=0;entryY=0.5;entryDx=0;entryDy=0;" parent="1" source="hP72EC4CjcAznyABsPa--40" target="hP72EC4CjcAznyABsPa--35" edge="1">
          <mxGeometry relative="1" as="geometry">
            <Array as="points">
              <mxPoint x="30" y="630" />
              <mxPoint x="30" y="220" />
            </Array>
          </mxGeometry>
        </mxCell>
        <mxCell id="hP72EC4CjcAznyABsPa--40" value="Wait 15 Minutes" style="whiteSpace=wrap;html=1;fillColor=#dae8fc;strokeColor=#6c8ebf;rounded=0;" parent="1" vertex="1">
          <mxGeometry x="100" y="600" width="120" height="60" as="geometry" />
        </mxCell>
      </root>
    </mxGraphModel>
  </diagram>
</mxfile>
